<mxfile host="app.diagrams.net" modified="2024-07-21T13:26:03.145Z" agent="Mozilla/5.0 (X11; Linux x86_64) AppleWebKit/537.36 (KHTML, like Gecko) Chrome/126.0.0.0 Safari/537.36" version="24.7.1" etag="pD_ejscp8AgsU_WqdmOR" type="github">
  <diagram name="Page-1" id="wRQHPLmlYZ2MsdlDEbJp">
    <mxGraphModel>
      <root>
        <mxCell id="0" />
        <mxCell id="1" parent="0" />
      </root>
    </mxGraphModel>
  </diagram>
</mxfile>
